HIERARCHY
ROOT Hips
{
    OFFSET 0.000000 0.000000 0.000000
    CHANNELS 6 Xposition Yposition Zposition Zrotation Xrotation Yrotation
        JOINT Spine1
        {
            OFFSET -0.000000 23.269398 0.000000
            CHANNELS 3 Zrotation Xrotation Yrotation
            JOINT Neck
            {
                OFFSET -0.000000 18.032967 0.000000
                CHANNELS 3 Zrotation Xrotation Yrotation
                JOINT Head
                {
                    OFFSET -0.000000 13.091072 1.689171
                    CHANNELS 3 Zrotation Xrotation Yrotation
                    End Site
                    {
                        OFFSET -0.000000 16.891708 0.000000
                    }
                }
            }
            JOINT LeftShoulder
            {
                OFFSET 3.336773 14.146137 -0.012206
                CHANNELS 3 Zrotation Xrotation Yrotation
                JOINT LeftArm
                {
                    OFFSET 11.765518 0.000000 0.000000
                    CHANNELS 3 Zrotation Xrotation Yrotation
                    JOINT LeftForeArm
                    {
                        OFFSET 25.163450 0.000000 0.000000
                        CHANNELS 3 Zrotation Xrotation Yrotation
                        JOINT LeftHand
                        {
                            OFFSET 21.783554 0.000000 0.000000
                            CHANNELS 3 Zrotation Xrotation Yrotation
                            End Site
                            {
                                OFFSET 12.668781 0.000000 0.000000
                            }
                        }
                    }
                }
            }
            JOINT RightShoulder
            {
                OFFSET -3.409204 14.146137 -0.012206
                CHANNELS 3 Zrotation Xrotation Yrotation
                JOINT RightArm
                {
                    OFFSET -11.765518 0.000000 0.000000
                    CHANNELS 3 Zrotation Xrotation Yrotation
                    JOINT RightForeArm
                    {
                        OFFSET -25.163450 0.000000 0.000000
                        CHANNELS 3 Zrotation Xrotation Yrotation
                        JOINT RightHand
                        {
                            OFFSET -21.783554 0.000000 0.000000
                            CHANNELS 3 Zrotation Xrotation Yrotation
                            End Site
                            {
                                OFFSET -12.668781 0.000000 0.000000
                            }
                        }
                    }
                }
            }
        }
        JOINT LeftUpLeg
    {
        OFFSET 8.445854 0.000000 0.000000
        CHANNELS 3 Zrotation Xrotation Yrotation
        JOINT LeftLeg
        {
            OFFSET -0.000000 -40.674755 0.000000
            CHANNELS 3 Zrotation Xrotation Yrotation
            JOINT LeftFoot
            {
                OFFSET -0.000000 -37.111794 0.000000
                CHANNELS 3 Zrotation Xrotation Yrotation
                JOINT LeftToeBase
                {
                    OFFSET -0.000000 -5.489805 12.668781
                    CHANNELS 3 Zrotation Xrotation Yrotation
                    End Site
                    {
                        OFFSET -0.000000 0.000000 3.378341
                    }
                }
            }
        }
    }
    JOINT RightUpLeg
    {
        OFFSET -8.445854 0.000000 0.000000
        CHANNELS 3 Zrotation Xrotation Yrotation
        JOINT RightLeg
        {
            OFFSET -0.000000 -40.674755 0.000000
            CHANNELS 3 Zrotation Xrotation Yrotation
            JOINT RightFoot
            {
                OFFSET -0.000000 -37.111794 0.000000
                CHANNELS 3 Zrotation Xrotation Yrotation
                JOINT RightToeBase
                {
                    OFFSET -0.000000 -5.489805 12.668781
                    CHANNELS 3 Zrotation Xrotation Yrotation
                    End Site
                    {
                        OFFSET -0.000000 0.000000 3.378341
                    }
                }
            }
        }
    }
}
MOTION
Frames:    12
Frame Time:    0.008333
11.086401    82.349266    -4.329485    -1.873307    -6.416700    -0.497037    0.990598    8.068269    -3.662322    0.589659    1.381000    -2.937413    -0.722620    25.200611    -2.699188    -0.687183    9.600634    10.256186    -51.905643    27.472067    -30.921785    2.709214    -16.623690    -61.175392    21.480818    -15.080598    0.008519    -1.857991    6.899721    -2.866489    60.142384    12.087794    39.284428    29.624660    26.063259    91.599045    -31.509186    -3.787568    -4.120181    13.614407    -7.285308    3.222630    -1.177155    25.168699    8.459084    -8.912363    -6.583941    15.342090    -4.993454    -4.332584    5.512428    6.782533    7.703736    5.895904    -3.274844    -0.010371    -1.931606    -3.604244    -2.491278    -0.453084    -0.714640    2.528704    -2.240561    
11.092338    82.330231    -4.298404    -1.908678    -6.232320    -0.755650    1.044002    7.847982    -3.475573    0.605840    1.372543    -2.928297    -0.676180    25.322502    -2.702642    -0.738030    9.628946    10.275479    -51.959496    27.497471    -30.793173    3.210536    -16.130575    -59.175133    22.754766    -14.205877    0.845009    -1.805673    6.985636    -2.887666    60.025978    12.124812    39.352409    29.628376    26.011765    91.687935    -31.543648    -3.906172    -4.098228    13.678966    -7.322803    3.513317    -1.156856    25.114416    8.424244    -8.939026    -6.605256    15.363265    -4.995090    -4.336988    5.507096    6.786872    7.554614    6.149837    -3.292093    -0.029054    -1.927898    -3.595421    -2.472683    -0.438364    -0.713122    2.516932    -2.225564    
11.149721    82.322739    -4.234143    -1.861710    -6.367734    -0.886872    0.955255    7.916082    -3.412764    0.638028    1.424398    -2.945597    -0.559985    25.351189    -2.755334    -0.727789    9.603002    10.287294    -51.738762    28.016033    -30.589647    3.322434    -16.800814    -57.500095    21.431610    -15.066030    -0.105141    -1.811467    6.981038    -2.893220    60.166096    12.121766    39.261986    29.725512    26.089077    91.639450    -31.573961    -3.932666    -4.003670    13.553296    -7.052299    3.583323    -1.072053    25.023052    8.453640    -8.931752    -6.637153    15.350885    -4.989326    -4.322755    5.522659    6.617555    7.762105    6.259485    -3.168349    -0.090628    -1.899685    -3.607203    -2.498811    -0.446025    -0.724864    2.532156    -2.215675    
11.087007    82.335365    -4.297178    -1.880623    -6.206799    -0.796893    0.987686    7.940218    -3.485310    0.616711    1.404363    -2.993083    -0.412449    25.115623    -2.859166    -0.642271    9.448407    10.198211    -52.791325    26.554237    -30.676092    3.412108    -14.958747    -54.336189    21.619614    -13.491188    -1.248613    -1.896887    6.847550    -2.898042    60.151497    12.092310    39.316494    29.745167    26.024698    91.747780    -31.621801    -4.084162    -4.023234    13.645284    -7.330374    3.512900    -1.148578    25.101969    8.475639    -8.940534    -6.577522    15.355972    -5.025796    -4.379936    5.506806    6.748326    7.531113    6.166933    -3.276063    -0.032910    -1.902517    -3.604131    -2.481311    -0.432937    -0.720136    2.526719    -2.220806    
11.131083    82.365532    -4.217119    -1.836682    -6.323010    -1.000487    0.966111    8.055662    -3.346483    0.662783    1.391204    -2.992282    -0.433144    25.189159    -2.844340    -0.663374    9.426435    10.181452    -52.857597    26.598598    -30.618006    3.811209    -14.759048    -52.419338    21.924540    -13.104500    -0.892527    -1.877119    6.902798    -2.923263    60.050068    12.103264    39.393803    29.767757    25.968603    91.844749    -31.662638    -4.221538    -4.050473    13.543314    -7.013367    3.670143    -1.077393    24.944687    8.508993    -8.941750    -6.586102    15.332145    -5.001373    -4.348146    5.501068    6.599852    7.750240    6.336030    -3.196900    -0.133019    -1.864773    -3.612457    -2.482665    -0.441588    -0.727144    2.536270    -2.215679    
11.077873    82.336899    -4.286565    -1.889363    -6.195302    -0.862979    0.976289    7.902198    -3.502928    0.691019    1.446479    -2.998161    -0.328016    25.190226    -2.881948    -0.655468    9.412542    10.184081    -52.902908    26.615795    -30.560160    3.612651    -14.824298    -50.713551    21.858917    -13.238413    -0.407274    -1.907637    6.874797    -2.894475    60.166904    12.098987    39.310619    29.831902    25.990841    91.843277    -31.654009    -4.290311    -3.989069    13.655164    -7.306057    3.531577    -1.144878    25.092396    8.506001    -8.951157    -6.607969    15.374408    -4.993091    -4.332793    5.510632    6.746231    7.538334    6.185599    -3.261457    -0.056319    -1.860510    -3.607337    -2.480340    -0.428506    -0.713923    2.515687    -2.221095    
11.074417    82.336388    -4.281487    -1.894664    -6.183093    -0.889381    0.989691    7.899827    -3.520391    0.670948    1.458883    -3.008054    -0.203447    25.207066    -2.937651    -0.686482    9.408876    10.193010    -52.927494    26.657082    -30.546616    3.728481    -14.736343    -48.893124    22.020847    -13.134310    -0.234284    -1.880609    6.896347    -2.913820    60.060009    12.114394    39.361797    29.753237    25.949921    91.988976    -32.542549    -4.256796    -4.119452    13.659201    -7.304469    3.537190    -1.135357    25.084585    8.537386    -8.962433    -6.574061    15.355353    -5.018188    -4.375953    5.490086    6.747606    7.533006    6.190492    -3.255243    -0.064439    -1.834413    -3.615228    -2.475686    -0.432808    -0.708187    2.497782    -2.208525    
11.041260    82.338898    -4.282413    -1.938375    -6.168237    -0.915276    1.013028    7.881667    -3.539621    0.677341    1.500914    -3.018103    -0.081630    25.203213    -2.988588    -0.704424    9.421002    10.204268    -52.960613    26.662477    -30.499571    3.607764    -14.665880    -47.065605    22.061811    -13.200915    -0.322568    -1.878047    6.904973    -2.921847    60.251980    11.862000    39.371227    30.075388    26.247347    91.725876    -32.645191    -4.180033    -4.018428    13.740282    -7.313130    3.545106    -1.170391    25.093288    8.555316    -8.957575    -6.624217    15.364868    -4.976577    -4.313982    5.500001    6.814151    7.526610    6.185567    -3.292878    -0.058776    -0.795491    -3.632538    -2.415830    -1.453192    -0.712353    2.504829    -2.207758    
11.046823    82.338142    -4.274341    -1.933062    -6.155324    -0.949577    0.978206    7.876552    -3.551738    0.703721    1.516798    -3.029027    0.011676    25.221447    -3.027851    -0.722820    9.446289    10.224715    -53.014248    26.690149    -30.306204    3.395611    -14.757317    -45.565567    21.896626    -13.467951    -0.504761    -1.861655    6.900841    -2.926556    60.246807    11.881591    39.374382    30.132727    26.193174    91.792511    -31.800083    -4.385720    -4.000566    13.723755    -7.307424    3.547632    -1.158751    25.086143    8.591770    -8.971907    -6.597348    15.350848    -5.000415    -4.346127    5.502791    6.803985    7.519364    6.190816    -3.269552    -0.083759    -1.791439    -3.627450    -2.458358    -0.425784    -0.712829    2.512212    -2.218604    
11.032907    82.333160    -4.294857    -1.947711    -6.160027    -0.869680    0.964980    7.872886    -3.653051    0.739159    1.531615    -3.061431    0.109574    25.249468    -3.089571    -0.737843    9.459352    10.232481    -53.066761    26.686764    -30.211088    3.348012    -14.631238    -43.910641    21.986919    -13.417826    -0.513883    -1.833798    6.887373    -2.961011    60.241024    11.874022    39.338177    30.359238    26.155264    91.771881    -31.503641    -4.745722    -3.829396    13.738110    -7.373302    3.436798    -1.169030    25.141109    8.630640    -8.984909    -6.603118    15.345236    -4.988684    -4.335901    5.487349    6.839678    7.506520    6.083147    -3.269295    -0.080311    -1.765662    -3.621922    -2.473008    -0.425150    -0.717827    2.520067    -2.216676    
11.030101    82.334496    -4.288898    -1.948988    -6.155838    -0.902528    0.932359    7.872548    -3.655545    0.779583    1.557508    -3.082182    0.193832    25.262793    -3.133798    -0.746580    9.472718    10.236770    -53.153885    26.642572    -30.085499    3.263650    -14.509855    -42.332912    22.103325    -13.368885    -0.455082    -1.818905    6.879691    -2.975931    60.057606    12.132488    39.329292    30.116888    25.860853    92.123817    -31.569473    -4.965302    -3.922784    13.737478    -7.362596    3.441607    -1.163690    25.138138    8.638551    -8.974779    -6.600756    15.359982    -4.984791    -4.331784    5.484046    6.833314    7.513481    6.085929    -3.261556    -0.097873    -1.741311    -3.620025    -2.447098    -0.419720    -0.712530    2.516252    -2.226203    
11.027144    82.334396    -4.281147    -1.953308    -6.155468    -0.934658    0.916941    7.874742    -3.667321    0.821848    1.665556    -3.088201    0.267637    25.181965    -3.158155    -0.761864    9.460625    10.213665    -53.272934    26.590427    -29.913103    3.173208    -14.392648    -40.761200    22.368109    -13.333580    -0.448983    -1.834891    6.883629    -2.975343    60.077469    12.123671    39.332191    30.173468    25.858847    92.154251    -31.632597    -5.050147    -3.928210    13.740543    -7.349073    3.469897    -1.148010    25.142536    8.642662    -8.991464    -6.597546    15.350372    -5.003890    -4.360494    5.478805    6.797447    7.485880    6.098992    -3.142174    -0.005021    -1.058220    -3.738589    -2.478464    -1.084358    -0.709299    2.501348    -2.211128    
